<?xml version="1.0" encoding="UTF-8" standalone="no"?><!DOCTYPE svg PUBLIC "-//W3C//DTD SVG 1.1//EN" "http://www.w3.org/Graphics/SVG/1.1/DTD/svg11.dtd"><svg width="100%" height="100%" viewBox="0 0 1501 376" version="1.1" xmlns="http://www.w3.org/2000/svg" xmlns:xlink="http://www.w3.org/1999/xlink" xml:space="preserve" xmlns:serif="http://www.serif.com/" style="fill-rule:evenodd;clip-rule:evenodd;stroke-linejoin:round;stroke-miterlimit:2;"><rect x="0" y="0" width="1500.19" height="375.594" style="fill:#202022;"/><rect id="Artboard1" x="0" y="0" width="1500.19" height="375.594" style="fill:none;"/><g><g transform="matrix(1,0,0,1,27.937,319.328)"><clipPath id="_clip1"><path d="M157.125,0l-98.25,-213.938l0,169.876c0,15.624 1.688,25.374 5.063,29.25c4.625,5.25 11.937,7.875 21.937,7.875l9,-0l0,6.937l-88.5,0l0,-6.937l9,-0c10.75,-0 18.375,-3.251 22.875,-9.75c2.75,-4.001 4.125,-13.125 4.125,-27.375l0,-166.125c0,-11.25 -1.25,-19.376 -3.75,-24.375c-1.75,-3.626 -4.969,-6.657 -9.656,-9.094c-4.688,-2.438 -12.219,-3.656 -22.594,-3.656l0,-6.938l72,0l92.25,198.938l90.75,-198.938l72,0l0,6.938l-8.813,-0c-10.875,-0 -18.562,3.249 -23.062,9.75c-2.75,3.999 -4.125,13.125 -4.125,27.375l0,166.125c0,15.624 1.75,25.374 5.25,29.25c4.625,5.25 11.938,7.875 21.938,7.875l8.812,-0l0,6.937l-108,0l0,-6.937l9,-0c10.875,-0 18.5,-3.251 22.875,-9.75c2.75,-4.001 4.125,-13.125 4.125,-27.375l0,-169.875l-98.063,213.937l-6.187,0Zm293.625,-24.75c-17.625,13.625 -28.688,21.5 -33.188,23.625c-6.75,3.125 -13.937,4.687 -21.562,4.688c-11.875,-0.001 -21.656,-4.063 -29.344,-12.188c-7.687,-8.125 -11.531,-18.813 -11.531,-32.063c0,-8.375 1.875,-15.625 5.625,-21.749c5.125,-8.501 14.031,-16.501 26.719,-24.001c12.687,-7.499 33.781,-16.625 63.281,-27.374l0,-6.75c0,-17.126 -2.719,-28.875 -8.156,-35.25c-5.438,-6.375 -13.344,-9.563 -23.719,-9.563c-7.875,0 -14.125,2.125 -18.75,6.375c-4.75,4.25 -7.125,9.125 -7.125,14.625l0.375,10.875c0,5.75 -1.469,10.187 -4.406,13.313c-2.938,3.124 -6.781,4.687 -11.531,4.687c-4.625,0 -8.407,-1.625 -11.344,-4.875c-2.938,-3.25 -4.406,-7.688 -4.406,-13.313c-0,-10.75 5.5,-20.625 16.5,-29.625c11,-9 26.437,-13.5 46.312,-13.5c15.25,0 27.75,2.563 37.5,7.688c7.375,3.875 12.813,9.938 16.313,18.188c2.25,5.374 3.375,16.374 3.375,33l-0,58.312c-0,16.375 0.312,26.406 0.937,30.094c0.625,3.687 1.656,6.156 3.094,7.406c1.437,1.25 3.094,1.875 4.969,1.875c2,0 3.75,-0.438 5.25,-1.312c2.625,-1.626 7.687,-6.188 15.187,-13.688l0,10.5c-14,18.75 -27.375,28.125 -40.125,28.125c-6.125,-0 -11,-2.125 -14.625,-6.375c-3.625,-4.25 -5.5,-11.5 -5.625,-21.75Zm0,-12.187l0,-65.438c-18.875,7.5 -31.062,12.812 -36.563,15.938c-9.874,5.499 -16.937,11.249 -21.187,17.249c-4.25,6.001 -6.375,12.563 -6.375,19.688c0,9 2.688,16.469 8.063,22.406c5.375,5.938 11.562,8.907 18.562,8.907c9.5,-0 22,-6.251 37.5,-18.751Zm123.375,-139.875l0,38.625c14.375,-25.75 29.125,-38.625 44.25,-38.625c6.875,0 12.563,2.094 17.063,6.282c4.5,4.187 6.75,9.031 6.75,14.531c-0,4.875 -1.625,9 -4.875,12.375c-3.25,3.375 -7.125,5.062 -11.625,5.062c-4.375,0 -9.282,-2.156 -14.719,-6.468c-5.438,-4.313 -9.469,-6.469 -12.094,-6.469c-2.25,-0 -4.687,1.25 -7.312,3.75c-5.625,5.125 -11.438,13.562 -17.438,25.312l0,82.313c0,9.5 1.188,16.687 3.563,21.562c1.625,3.375 4.5,6.188 8.625,8.438c4.125,2.25 10.062,3.375 17.812,3.375l0,6.75l-87.937,-0l-0,-6.75c8.75,-0 15.25,-1.375 19.5,-4.125c3.125,-2 5.312,-5.188 6.562,-9.563c0.625,-2.125 0.938,-8.187 0.938,-18.187l-0,-66.563c-0,-20 -0.407,-31.906 -1.219,-35.718c-0.813,-3.813 -2.313,-6.594 -4.5,-8.344c-2.188,-1.75 -4.906,-2.625 -8.156,-2.625c-3.875,-0 -8.25,0.937 -13.125,2.812l-1.875,-6.75l51.937,-21l7.875,0Zm128.438,-89.812l-0,170.812l43.687,-39.75c9.25,-8.5 14.625,-13.875 16.125,-16.125c1,-1.5 1.5,-3 1.5,-4.5c0,-2.5 -1.031,-4.656 -3.094,-6.468c-2.062,-1.813 -5.468,-2.844 -10.218,-3.094l-0,-6l74.625,-0l-0,6c-10.25,0.25 -18.782,1.812 -25.594,4.687c-6.813,2.875 -14.281,8 -22.406,15.375l-44.063,40.688l44.063,55.687c12.25,15.375 20.5,25.125 24.75,29.25c6,5.875 11.25,9.688 15.75,11.438c3.125,1.25 8.562,1.875 16.312,1.875l0,6.75l-83.437,-0l-0,-6.75c4.75,-0.125 7.968,-0.844 9.656,-2.156c1.687,-1.313 2.531,-3.157 2.531,-5.532c0,-2.875 -2.5,-7.5 -7.5,-13.875l-52.687,-67.312l-0,57c-0,11.125 0.781,18.437 2.343,21.937c1.563,3.5 3.782,6 6.657,7.5c2.875,1.5 9.125,2.313 18.75,2.438l-0,6.75l-87.375,-0l-0,-6.75c8.75,-0 15.312,-1.063 19.687,-3.188c2.625,-1.375 4.625,-3.5 6,-6.375c1.875,-4.125 2.813,-11.25 2.813,-21.375l-0,-156.375c-0,-19.875 -0.438,-32.031 -1.313,-36.468c-0.875,-4.438 -2.312,-7.5 -4.312,-9.188c-2,-1.687 -4.625,-2.531 -7.875,-2.531c-2.625,-0 -6.563,1.062 -11.813,3.187l-3.187,-6.562l51,-21l8.625,-0Z" clip-rule="nonzero"/></clipPath><g clip-path="url(#_clip1)"><text x="0px" y="0px" style="font-family:'TimesNewRomanPSMT', 'Times New Roman', serif;font-size:384px;">Mark</text><g transform="matrix(1,0,0,1,-27.937,-319.328)"><path d="M730.5,52.703l-0,170.812l43.687,-39.75c9.25,-8.5 14.625,-13.875 16.125,-16.125c1,-1.5 1.5,-3 1.5,-4.5c0,-2.5 -1.031,-4.656 -3.094,-6.468c-2.062,-1.813 -5.468,-2.844 -10.218,-3.094l-0,-6l74.625,-0l-0,6c-10.25,0.25 -18.782,1.812 -25.594,4.687c-6.813,2.875 -14.281,8 -22.406,15.375l-44.063,40.688l44.063,55.687c12.25,15.375 20.5,25.125 24.75,29.25c6,5.875 11.25,9.688 15.75,11.438c3.125,1.25 8.562,1.875 16.312,1.875l0,6.75l-83.438,-0l0,-6.75c4.751,-0.125 7.969,-0.844 9.657,-2.156c1.687,-1.313 2.531,-3.157 2.531,-5.532c0,-2.875 -2.5,-7.5 -7.5,-13.875l-52.688,-67.312l0,57c0,11.125 0.782,18.437 2.344,21.937c1.563,3.5 3.782,6 6.656,7.5c2.876,1.5 9.126,2.313 18.75,2.438l0,6.75l-87.375,-0l0,-6.75c8.751,-0 15.313,-1.063 19.688,-3.188c2.625,-1.375 4.625,-3.5 6,-6.375c1.875,-4.125 2.813,-11.25 2.813,-21.375l-0,-156.375c-0,-19.875 -0.438,-32.031 -1.313,-36.468c-0.875,-4.438 -2.312,-7.5 -4.313,-9.188c-1.999,-1.687 -4.624,-2.531 -7.875,-2.531c-2.625,-0 -6.562,1.062 -11.812,3.187l-3.188,-6.562l51,-21l8.625,-0Z" style="fill:#dadada;"/></g><g transform="matrix(1,0,0,1,-27.937,-319.328)"><path d="M602.062,142.515l0,38.625c14.375,-25.75 29.125,-38.625 44.25,-38.625c6.875,0 12.563,2.094 17.063,6.282c4.5,4.187 6.75,9.031 6.75,14.531c-0,4.875 -1.625,9 -4.875,12.375c-3.25,3.375 -7.125,5.062 -11.625,5.062c-4.375,0 -9.282,-2.156 -14.719,-6.468c-5.438,-4.313 -9.469,-6.469 -12.094,-6.469c-2.25,-0 -4.687,1.25 -7.312,3.75c-5.625,5.125 -11.438,13.562 -17.438,25.312l0,82.313c0,9.5 1.188,16.687 3.563,21.562c1.625,3.375 4.5,6.188 8.625,8.438c4.125,2.25 10.062,3.375 17.812,3.375l0,6.75l-87.937,-0l-0,-6.75c8.75,-0 15.25,-1.375 19.5,-4.125c3.125,-2 5.312,-5.188 6.562,-9.563c0.625,-2.125 0.938,-8.187 0.938,-18.187l-0,-66.563c-0,-20 -0.407,-31.906 -1.219,-35.718c-0.813,-3.813 -2.313,-6.594 -4.5,-8.344c-2.188,-1.75 -4.906,-2.625 -8.156,-2.625c-3.875,-0 -8.25,0.937 -13.125,2.812l-1.875,-6.75l51.937,-21l7.875,0Z" style="fill:#dadada;"/></g><g transform="matrix(1,0,0,1,-27.937,-319.328)"><path d="M478.687,294.578c-17.625,13.625 -28.688,21.5 -33.188,23.625c-6.75,3.125 -13.937,4.687 -21.562,4.687c-11.875,0 -21.656,-4.062 -29.344,-12.187c-7.687,-8.125 -11.531,-18.813 -11.531,-32.063c0,-8.375 1.875,-15.625 5.625,-21.75c5.125,-8.5 14.031,-16.5 26.719,-24c12.687,-7.5 33.781,-16.625 63.281,-27.375l0,-6.75c0,-17.125 -2.719,-28.875 -8.156,-35.25c-5.438,-6.375 -13.344,-9.562 -23.719,-9.562c-7.875,-0 -14.125,2.125 -18.75,6.375c-4.75,4.25 -7.125,9.125 -7.125,14.625l0.375,10.875c0,5.75 -1.469,10.187 -4.406,13.312c-2.938,3.125 -6.781,4.688 -11.531,4.688c-4.625,-0 -8.407,-1.625 -11.344,-4.875c-2.938,-3.25 -4.406,-7.688 -4.406,-13.313c-0,-10.75 5.5,-20.625 16.5,-29.625c11,-9 26.437,-13.5 46.312,-13.5c15.25,0 27.75,2.563 37.5,7.688c7.375,3.875 12.813,9.937 16.313,18.187c2.25,5.375 3.375,16.375 3.375,33l-0,58.313c-0,16.375 0.312,26.406 0.937,30.094c0.625,3.687 1.656,6.156 3.094,7.406c1.437,1.25 3.093,1.875 4.968,1.875c2.001,-0 3.75,-0.438 5.25,-1.313c2.625,-1.625 7.688,-6.187 15.188,-13.687l0,10.5c-14,18.75 -27.375,28.125 -40.125,28.125c-6.125,-0 -11,-2.125 -14.625,-6.375c-3.625,-4.25 -5.5,-11.5 -5.625,-21.75Zm0,-12.188l0,-65.437c-18.875,7.5 -31.062,12.812 -36.563,15.937c-9.874,5.5 -16.937,11.25 -21.187,17.25c-4.25,6 -6.375,12.563 -6.375,19.688c0,9 2.688,16.469 8.063,22.406c5.375,5.938 11.562,8.906 18.562,8.906c9.5,0 22,-6.25 37.5,-18.75Z" style="fill:#dadada;"/></g><g transform="matrix(1,0,0,1,-27.937,-319.328)"><path d="M185.062,319.328l-98.25,-213.938l-0,169.875c-0,15.625 1.687,25.375 5.062,29.25c4.626,5.25 11.938,7.875 21.938,7.875l9,0l-0,6.938l-88.5,0l-0,-6.938l9,0c10.75,0 18.375,-3.25 22.875,-9.75c2.75,-4 4.125,-13.125 4.125,-27.375l-0,-166.125c-0,-11.25 -1.25,-19.375 -3.75,-24.375c-1.75,-3.625 -4.969,-6.656 -9.656,-9.093c-4.688,-2.438 -12.219,-3.657 -22.594,-3.657l-0,-6.937l72,-0l92.25,198.938l90.75,-198.938l72,-0l0,6.937l-8.813,0c-10.875,0 -18.562,3.25 -23.062,9.75c-2.75,4 -4.125,13.125 -4.125,27.375l0,166.125c0,15.625 1.75,25.375 5.25,29.25c4.625,5.25 11.938,7.875 21.938,7.875l8.812,0l0,6.938l-108,0l0,-6.938l9,0c10.875,0 18.5,-3.25 22.875,-9.75c2.75,-4 4.125,-13.125 4.125,-27.375l0,-169.875l-98.063,213.938l-6.187,0Z" style="fill:#dadada;"/></g></g></g><g><g transform="matrix(1,0,0,1,859.69,319.328)"><clipPath id="_clip2"><path d="M133.5,0l-78.938,0l2.063,-9.188c4.875,-0.625 8.5,-1.593 10.875,-2.906c2.375,-1.312 4.469,-3.281 6.281,-5.906c1.813,-2.625 3.656,-6.719 5.531,-12.281c1.875,-5.563 4.063,-14.094 6.563,-25.594l40.125,-183.563l-23.813,0.001c-7.749,-0 -13.937,1.125 -18.562,3.375c-4.625,2.25 -9.25,6.437 -13.875,12.562c-4.625,6.125 -10.25,16.375 -16.875,30.75l-18,0l14.062,-63.188l195.75,0l-14.625,66l-18,0c0,-12.125 -0.312,-21.218 -0.937,-27.281c-0.625,-6.062 -1.812,-10.687 -3.563,-13.875c-1.749,-3.187 -3.906,-5.375 -6.468,-6.562c-2.563,-1.188 -7.094,-1.781 -13.594,-1.781l-27.75,-0l-40.688,184.875c-1.125,4.875 -1.906,8.749 -2.343,11.625c-0.438,2.874 -0.813,5.906 -1.125,9.093c-0.313,3.188 -0.469,6.031 -0.469,8.532c-0,3.874 0.625,6.906 1.875,9.093c1.25,2.188 3.125,3.781 5.625,4.782c2.5,0.999 6.813,1.749 12.937,2.25l-2.062,9.187Z" clip-rule="nonzero"/></clipPath><g clip-path="url(#_clip2)"><text x="0px" y="0px" style="font-family:'Cambria-Italic', 'Cambria', serif;font-style:italic;font-size:384px;">T</text><g transform="matrix(1,0,0,1,-859.69,-319.328)"><path d="M993.19,319.328l-78.938,-0l2.063,-9.188c4.875,-0.625 8.5,-1.593 10.875,-2.906c2.375,-1.312 4.469,-3.281 6.281,-5.906c1.813,-2.625 3.657,-6.719 5.532,-12.281c1.875,-5.563 4.062,-14.094 6.562,-25.594l40.125,-183.563l-23.813,0c-7.749,0 -13.937,1.125 -18.562,3.375c-4.625,2.25 -9.25,6.438 -13.875,12.563c-4.625,6.125 -10.25,16.375 -16.875,30.75l-18,-0l14.063,-63.188l195.75,0l-14.626,66l-18,0c0,-12.125 -0.312,-21.218 -0.937,-27.281c-0.625,-6.062 -1.812,-10.687 -3.563,-13.875c-1.749,-3.187 -3.906,-5.375 -6.468,-6.562c-2.563,-1.188 -7.094,-1.782 -13.594,-1.782l-27.75,0l-40.688,184.875c-1.125,4.875 -1.906,8.75 -2.343,11.625c-0.438,2.875 -0.813,5.907 -1.125,9.094c-0.313,3.188 -0.469,6.031 -0.469,8.531c0,3.875 0.625,6.907 1.875,9.094c1.25,2.188 3.125,3.781 5.625,4.781c2.5,1 6.813,1.75 12.938,2.25l-2.063,9.188Z" style="fill:#dadada;"/></g></g></g><g transform="matrix(1,0,0,1,1053.94,319.328)"><clipPath id="_clip3"><path d="M152.625,-37.313c-9.25,10.126 -18.125,18.125 -26.625,24.001c-8.5,5.874 -17,10.062 -25.5,12.562c-8.5,2.5 -17.875,3.75 -28.125,3.75c-9.875,-0 -18.375,-1.594 -25.5,-4.781c-7.125,-3.188 -13.031,-7.563 -17.719,-13.125c-4.687,-5.563 -8.156,-12.188 -10.406,-19.875c-2.25,-7.688 -3.375,-16.031 -3.375,-25.031c0,-13.376 2.406,-27.719 7.219,-43.032c4.812,-15.312 12.093,-29.062 21.844,-41.25c9.749,-12.187 21.437,-21.625 35.062,-28.312c13.625,-6.688 28.125,-10.031 43.5,-10.031c15.125,-0 26.469,3.062 34.031,9.187c7.563,6.125 11.344,15.687 11.344,28.688c0,21.249 -9.969,37.187 -29.906,47.812c-19.938,10.625 -49.531,15.938 -88.781,15.938c-1.5,7.5 -2.25,15.624 -2.25,24.375c-0,13.125 2.562,22.656 7.687,28.593c5.125,5.938 13.5,8.907 25.125,8.907c11.5,-0 21.938,-2.501 31.313,-7.5c9.375,-5.001 19.187,-12.688 29.437,-23.063l11.625,12.188Zm-99.75,-59.438c11.5,-0.125 21.594,-0.781 30.281,-1.969c8.688,-1.187 16.157,-2.812 22.406,-4.875c6.251,-2.062 11.438,-4.531 15.563,-7.406c4.125,-2.875 7.406,-6.031 9.844,-9.469c2.437,-3.437 4.125,-7.062 5.062,-10.875c0.938,-3.812 1.406,-7.781 1.406,-11.906c0,-7.625 -1.781,-13.594 -5.343,-17.906c-3.563,-4.313 -8.844,-6.469 -15.844,-6.469c-8.75,0 -17.344,3.156 -25.781,9.469c-8.438,6.312 -15.875,14.812 -22.313,25.5c-6.437,10.687 -11.531,22.656 -15.281,35.906Zm242.625,-159.188l-2.063,9.188c-5.374,0.875 -9.656,2.719 -12.843,5.531c-3.188,2.813 -4.782,6.906 -4.782,12.282c0,7.999 2.063,18.062 6.188,30.187l15.562,45.375l40.125,-50.813c1.875,-2.375 3.719,-4.843 5.532,-7.406c1.812,-2.562 3.437,-5.062 4.875,-7.5c1.437,-2.437 2.5,-4.531 3.187,-6.281c0.688,-1.75 1.188,-3.313 1.5,-4.688c0.313,-1.375 0.469,-2.687 0.469,-3.937c-0,-3.375 -1,-6.25 -3,-8.625c-2,-2.375 -5.438,-3.75 -10.313,-4.125l2.063,-9.188l69.937,0l-2.062,9.188c-3.75,1.125 -7.281,2.937 -10.594,5.438c-3.312,2.499 -7.25,6.249 -11.812,11.25c-4.563,4.999 -13.032,14.874 -25.407,29.625l-55.875,66.75l27.375,76.125c4.125,11.499 7.438,20.187 9.938,26.062c2.75,6.25 5.125,10.812 7.125,13.688c1.625,2.124 3.313,3.812 5.062,5.062c1.751,1.125 4.688,2.312 8.813,3.563l-1.875,9.187l-75.75,0l1.875,-9.187c5.75,-0.876 10.156,-2.844 13.219,-5.907c3.062,-3.062 4.593,-7.031 4.593,-11.906c0,-7.375 -1.5,-15.562 -4.5,-24.562l-19.5,-57.188l-42.75,53.438c-6.375,7.999 -10.999,14.531 -13.875,19.593c-2.874,5.063 -4.312,9.406 -4.312,13.032c-0,3 0.406,5.374 1.219,7.125c0.812,1.749 2.187,3.156 4.125,4.218c1.937,1.063 4.593,1.782 7.968,2.157l-2.062,9.187l-69.75,0l1.875,-9.187c2.5,-0.876 4.719,-1.844 6.656,-2.907c1.938,-1.062 4.063,-2.562 6.375,-4.5c2.313,-1.937 5.438,-5.094 9.375,-9.468c3.938,-4.376 8.407,-9.501 13.406,-15.375l73.125,-87l-27.75,-77.063c-2.749,-7.625 -5.187,-14 -7.312,-19.125c-2.125,-5.125 -4.219,-9.188 -6.281,-12.188c-2.063,-3 -4.219,-5.25 -6.469,-6.75c-2.25,-1.5 -5.063,-2.562 -8.438,-3.187l2.063,-9.188l75.75,0Z" clip-rule="nonzero"/></clipPath><g clip-path="url(#_clip3)"><text x="0px" y="0px" style="font-family:'Cambria-Italic', 'Cambria', serif;font-style:italic;font-size:384px;">eX</text><g transform="matrix(1,0,0,1,-1053.94,-319.328)"><path d="M1206.57,282.015c-9.25,10.125 -18.125,18.125 -26.625,24c-8.5,5.875 -17,10.063 -25.5,12.563c-8.5,2.5 -17.875,3.75 -28.125,3.75c-9.875,-0 -18.375,-1.594 -25.5,-4.781c-7.125,-3.188 -13.031,-7.563 -17.719,-13.125c-4.687,-5.563 -8.156,-12.188 -10.406,-19.875c-2.25,-7.688 -3.375,-16.031 -3.375,-25.031c0,-13.376 2.406,-27.719 7.219,-43.032c4.812,-15.312 12.093,-29.062 21.843,-41.25c9.75,-12.187 21.438,-21.625 35.063,-28.312c13.625,-6.688 28.125,-10.031 43.5,-10.031c15.125,-0 26.469,3.062 34.031,9.187c7.563,6.125 11.344,15.687 11.344,28.688c-0,21.249 -9.969,37.187 -29.906,47.812c-19.938,10.625 -49.531,15.938 -88.782,15.938c-1.5,7.5 -2.25,15.624 -2.25,24.375c0,13.125 2.563,22.656 7.688,28.593c5.125,5.938 13.5,8.907 25.125,8.907c11.5,-0 21.937,-2.501 31.312,-7.5c9.375,-5.001 19.188,-12.688 29.438,-23.063l11.625,12.188Zm-99.75,-59.438c11.5,-0.125 21.594,-0.781 30.281,-1.969c8.688,-1.187 16.157,-2.812 22.406,-4.875c6.251,-2.062 11.438,-4.531 15.563,-7.406c4.125,-2.875 7.406,-6.031 9.844,-9.469c2.437,-3.437 4.125,-7.062 5.062,-10.875c0.938,-3.812 1.406,-7.781 1.406,-11.906c0,-7.625 -1.781,-13.594 -5.343,-17.906c-3.563,-4.313 -8.844,-6.469 -15.844,-6.469c-8.75,0 -17.344,3.156 -25.781,9.469c-8.438,6.312 -15.875,14.812 -22.313,25.5c-6.437,10.687 -11.531,22.656 -15.281,35.906Z" style="fill:#dadada;"/></g><g transform="matrix(1,0,0,1,-1053.94,-319.328)"><path d="M1349.44,63.39l-2.063,9.188c-5.374,0.875 -9.656,2.719 -12.843,5.531c-3.188,2.813 -4.781,6.906 -4.781,12.281c-0,8 2.062,18.063 6.187,30.188l15.563,45.375l40.125,-50.813c1.875,-2.375 3.718,-4.843 5.531,-7.406c1.812,-2.562 3.437,-5.062 4.875,-7.5c1.437,-2.437 2.5,-4.531 3.187,-6.281c0.688,-1.75 1.188,-3.313 1.5,-4.688c0.313,-1.375 0.469,-2.687 0.469,-3.937c0,-3.375 -1,-6.25 -3,-8.625c-2,-2.375 -5.437,-3.75 -10.312,-4.125l2.062,-9.188l69.938,0l-2.063,9.188c-3.75,1.125 -7.281,2.937 -10.594,5.437c-3.312,2.5 -7.25,6.25 -11.812,11.25c-4.563,5 -13.031,14.875 -25.406,29.625l-55.875,66.75l27.375,76.125c4.125,11.5 7.437,20.188 9.937,26.063c2.75,6.25 5.125,10.812 7.125,13.688c1.625,2.124 3.313,3.812 5.063,5.062c1.75,1.125 4.687,2.312 8.812,3.563l-1.875,9.187l-75.75,0l1.875,-9.188c5.75,-0.875 10.156,-2.843 13.219,-5.906c3.062,-3.062 4.594,-7.031 4.594,-11.906c-0,-7.375 -1.5,-15.563 -4.5,-24.563l-19.5,-57.187l-42.75,53.438c-6.375,7.999 -11,14.531 -13.875,19.593c-2.875,5.063 -4.313,9.406 -4.313,13.031c0,3 0.406,5.375 1.219,7.125c0.812,1.75 2.187,3.157 4.125,4.219c1.937,1.063 4.594,1.781 7.969,2.156l-2.063,9.188l-69.75,0l1.875,-9.188c2.5,-0.875 4.719,-1.843 6.656,-2.906c1.938,-1.062 4.063,-2.562 6.375,-4.5c2.313,-1.937 5.438,-5.094 9.375,-9.469c3.938,-4.375 8.407,-9.5 13.407,-15.375l73.125,-87l-27.75,-77.062c-2.75,-7.625 -5.188,-14 -7.313,-19.125c-2.125,-5.125 -4.219,-9.188 -6.281,-12.188c-2.063,-3 -4.219,-5.25 -6.469,-6.75c-2.25,-1.5 -5.062,-2.562 -8.437,-3.187l2.062,-9.188l75.75,0Z" style="fill:#dadada;"/></g></g></g></g></g></svg>